<svg width="35" height="35" viewBox="0 0 35 35" fill="none" xmlns="http://www.w3.org/2000/svg">
<path fill-rule="evenodd" clip-rule="evenodd" d="M30.2273 0C32.8633 0 35 2.13683 35 4.77273V30.2273C35 32.8633 32.8633 35 30.2273 35H4.77273C2.13683 35 0 32.8633 0 30.2273V4.77273C0 2.13683 2.13683 0 4.77273 0H30.2273ZM30.2273 3.18182C31.1059 3.18182 31.8182 3.8941 31.8182 4.77273V30.2273C31.8182 31.1059 31.1059 31.8182 30.2273 31.8182H22.2727V20.6817H25.5758C26.2605 20.6817 26.8684 20.2435 27.0851 19.5938L27.7898 17.4795C28.0474 16.7068 27.4723 15.9089 26.6579 15.9089H22.2727V12.7271C22.2727 11.9317 23.0682 11.1362 23.8636 11.1362H27.0455C27.9241 11.1362 28.6364 10.424 28.6364 9.54533V8.45398C28.6364 7.94008 28.3082 7.47934 27.8112 7.3482C25.7258 6.79787 23.8636 6.79788 23.8636 6.79788C19.8864 6.79788 17.5 9.54533 17.5 11.9317V15.9089H14.3182C13.4396 15.9089 12.7273 16.6212 12.7273 17.4998V19.0907C12.7273 19.9694 13.4395 20.6817 14.3182 20.6817H17.5V31.8182H4.77273C3.8941 31.8182 3.18182 31.1059 3.18182 30.2273V4.77273C3.18182 3.8941 3.8941 3.18182 4.77273 3.18182H30.2273Z" fill="#3DA6A9"/>
</svg>
