<svg width="1440" height="299" viewBox="0 0 1440 299" fill="none" xmlns="http://www.w3.org/2000/svg">
<path d="M-1 298.5L47.0333 261.188C95.0667 223.875 191.133 149.25 287.2 124.414C383.267 99.1113 479.333 124.764 575.4 111.938C671.467 99.1113 767.533 50.1387 863.6 68.4451C959.667 87.4512 1055.73 173.736 1151.8 180.383C1247.87 186.562 1343.93 111.938 1391.97 74.625L1440 37.3125V0H1391.97C1343.93 0 1247.87 0 1151.8 0C1055.73 0 959.667 0 863.6 0C767.533 0 671.467 0 575.4 0C479.333 0 383.267 0 287.2 0C191.133 0 95.0667 0 47.0333 0H-1V298.5Z" fill="#1B2A2E"/>
</svg>
